Coordinates
version=1
nRows=19
nColumns=34
inDegrees=yes

Units are S.I. units (second, meters, Newtons, ...)
If the header above contains a line with 'inDegrees', this indicates whether rotational values are in degrees (yes) or radians (no).

endheader
time	pelvis_tilt	pelvis_list	pelvis_rotation	pelvis_tx	pelvis_ty	pelvis_tz	hip_flexion_r	hip_adduction_r	hip_rotation_r	knee_angle_r	ankle_angle_r	subtalar_angle_r	mtp_angle_r	hip_flexion_l	hip_adduction_l	hip_rotation_l	knee_angle_l	ankle_angle_l	subtalar_angle_l	mtp_angle_l	lumbar_extension	lumbar_bending	lumbar_rotation	arm_flex_r	arm_add_r	arm_rot_r	elbow_flex_r	pro_sup_r	arm_flex_l	arm_add_l	arm_rot_l	elbow_flex_l	pro_sup_l
      2.45000000	    -11.82403290	      2.30441664	      4.12107179	      0.61637289	      1.09295678	     -0.10189711	     28.74803689	     -4.13283856	    -10.00640952	      9.37787797	    -28.88253933	     -0.13770950	      0.00000000	     30.27952115	      1.58010061	     -2.73032494	     15.77114228	    -22.45652010	      5.57478255	      0.00000000	    -17.21642334	      1.42736033	      4.65720067	    -48.48048712	    -34.53525143	    -11.16510268	    118.51802443	     96.11601950	     -6.36838363	    -52.91518197	     -7.32831297	    127.06231490	    100.40418309
      2.46666670	    -11.25997890	      2.54514548	      4.15273800	      0.63363447	      1.05443609	     -0.10047133	     28.31970542	     -4.30089843	    -10.48579608	     10.80163182	    -29.56673735	     -1.00750839	      0.00000000	     30.74565147	      1.32541242	     -3.83894590	     15.73963393	    -24.28107328	      4.54363695	      0.00000000	    -16.59482911	      1.77201808	     13.05638740	    -58.99150252	    -26.12160097	    -19.77267754	    123.41192006	    101.01284709	     17.75293579	    -54.76009849	     17.02758203	    121.74316987	     96.85897471
      2.48333330	    -10.93168050	      2.50739564	      3.62931700	      0.65226694	      1.01733140	     -0.10047414	     28.90159264	     -3.95077433	     -9.68790730	     14.23594808	    -25.80469338	     -3.28809288	      0.00000000	     31.36345027	      0.87878719	     -3.97440406	     17.32358955	    -24.07202958	      3.83098748	      0.00000000	    -16.50634993	      2.04109193	     13.86865027	    -60.32084920	    -26.36042787	    -20.20570942	    125.58099765	    100.94673069	     17.96463943	    -56.63109924	     16.70786188	    122.95210808	     96.80078438
      2.50000000	    -10.76519297	      2.07698336	      3.07623118	      0.66670296	      0.98330841	     -0.10170044	     30.89756562	     -3.24109016	     -8.46323433	     20.92517584	    -17.74305834	     -7.85774024	      0.00000000	     33.11227076	      0.13052611	     -3.62949496	     22.38000547	    -18.09369474	      1.90843726	      0.00000000	    -16.83156468	      2.55779122	     14.70032186	    -60.30928611	    -25.85798975	    -21.40710667	    126.42029456	    100.76273477	     17.62311675	    -56.91389592	     15.58251982	    123.39320838	     96.62082913
      2.51666670	    -10.26066785	      1.71216457	      2.77418276	      0.68158137	      0.94706384	     -0.10251873	     33.91792338	     -2.66308478	     -6.91432423	     30.65602902	     -6.39727649	    -13.13545643	      0.00000000	     35.37947679	     -0.31204923	     -2.48659998	     30.51539399	     -7.49786818	      0.44850650	      0.00000000	    -17.26075104	      3.40156801	     15.35378178	    -59.06533344	    -24.82088989	    -23.14399373	    125.18832130	    100.14714738	     14.69615090	    -55.75818198	     12.23619421	    123.82931547	     96.31460966
      2.53333330	    -10.62876314	      1.91597146	      2.78483399	      0.69221242	      0.90813576	     -0.10665859	     38.82632997	     -2.89837915	     -5.08975932	     41.95799743	      5.41626095	    -17.92454904	      0.00000000	     39.45551979	      0.34817315	     -1.77783095	     40.79957827	      3.58232390	     -3.42720648	      0.00000000	    -17.96857571	      2.93821518	      9.22624313	    -49.85989088	    -30.45203071	    -17.40681886	    120.86410057	     94.72494868	     -1.52343916	    -55.12671145	     -5.49633010	    128.00823246	     96.68642778
      2.55000000	    -10.17478429	      2.03555189	      2.16443974	      0.70840190	      0.88006613	     -0.11035546	     42.64514024	     -2.85158891	     -3.82550280	     52.71412576	     14.49568011	    -19.29777562	      0.00000000	     42.47351805	      0.88801194	     -0.95239389	     50.86982480	     13.95201470	     -5.55126169	      0.00000000	    -18.52957005	      2.90969998	      7.87542185	    -41.92637133	    -31.34689577	    -14.42109190	    113.88144684	     94.75370891	      0.48513723	    -51.28087085	     -3.79713959	    123.51380368	     97.07168988
      2.56666670	     -9.31250825	      2.28038009	      2.00353590	      0.71469744	      0.86389181	     -0.11321976	     45.79331465	     -3.25206927	     -2.97832382	     61.76292736	     20.89381284	    -19.86599543	      0.00000000	     44.67912468	      2.06818605	      0.11325110	     59.31959738	     19.87875006	     -8.75877305	      0.00000000	    -19.60080514	      2.61860144	      5.54673052	    -30.79348830	    -30.92634298	     -9.36663440	    103.49105820	     94.58412222	      5.96897341	    -44.91824138	     -1.04158745	    114.38692834	     97.45403119
      2.58333330	     -7.81580305	      2.59769790	      1.53611450	      0.72519704	      0.84991596	     -0.11378708	     46.82517787	     -3.26063327	     -2.03824234	     67.94302212	     24.77682489	    -19.77980974	      0.00000000	     45.14724578	      3.18732618	      1.04666763	     65.24341531	     23.82618336	    -10.85471503	      0.00000000	    -21.44694382	      2.27668428	      4.06941750	    -20.04953788	    -28.37963630	     -4.77629852	     92.46761444	     94.34189401	      9.99807156	    -37.25715993	      0.49116594	    105.22442144	     97.61026791
      2.60000000	     -7.44300273	      2.93388087	      1.07748053	      0.73445909	      0.83179048	     -0.11738930	     48.11514518	     -3.40463051	     -1.39078232	     72.41624988	     27.31922548	    -19.93780305	      0.00000000	     46.05359601	      4.25671158	      1.54323305	     69.40638102	     27.08587113	    -12.22357560	      0.00000000	    -22.66001006	      2.02395093	      2.45352789	    -10.20786988	    -25.56293326	      0.22380591	     82.54854131	     94.35194434	     11.19071756	    -30.70316532	      0.75249947	     96.74330813	     97.54450539
      2.61666670	     -7.97344766	      3.31941770	      1.46663111	      0.74519191	      0.81593991	     -0.11514456	     49.16370390	     -3.89103307	     -1.28843303	     74.93292700	     29.98369357	    -19.51974994	      0.00000000	     47.17833902	      5.18642181	      1.93091747	     72.05397991	     29.35027877	    -12.81810931	      0.00000000	    -22.94079562	      1.57110729	     -0.24276950	     -2.15368258	    -21.82279586	      6.04418506	     75.27531609	     94.61291129	     10.79959886	    -24.87620878	     -0.86824235	     91.90456437	     97.18942413
      2.63333330	     -9.53157585	      3.63156595	      1.72769562	      0.74977778	      0.80378655	     -0.12097282	     50.95210282	     -4.38923408	     -0.98336124	     76.50095980	     31.88156397	    -19.29493768	      0.00000000	     49.51984987	      6.06813222	      1.96007599	     74.28355903	     30.78795319	    -13.39947314	      0.00000000	    -23.01168176	      1.66091216	     -1.80692648	      3.13089405	    -18.56594145	      9.07365401	     74.98805397	     94.88373021	     12.18022820	    -19.03787088	     -1.78076775	     88.62581317	     97.03258059
      2.65000000	    -11.46830729	      4.01434104	      1.96595626	      0.74401433	      0.80872443	     -0.12167993	     52.67660822	     -4.88728232	     -0.62516571	     75.82014278	     32.59848384	    -18.29079813	      0.00000000	     51.60575777	      6.81074359	      1.74948043	     74.18397564	     29.59534045	    -14.20382157	      0.00000000	    -23.39590626	      1.34734627	     -2.93714652	      8.66015032	    -15.43783000	     13.03611189	     77.42880804	     95.38350394	     14.92959256	    -14.51813110	     -0.74064149	     86.20121848	     97.03736032
      2.66666670	    -13.47358822	      4.46660782	      2.11570890	      0.75081026	      0.80939154	     -0.12198570	     54.21287982	     -5.29515045	     -0.17349208	     74.90595368	     32.71365904	    -17.85855596	      0.00000000	     53.41467790	      7.08406093	      1.15362367	     73.66814182	     28.36566806	    -14.58557308	      0.00000000	    -23.25537412	      1.10117707	     -3.49543419	     13.09822382	    -12.80358227	     17.80234555	     81.83258401	     95.94117148	     16.28216215	    -10.82179425	      2.59208606	     85.90054137	     97.26579331
      2.68333330	    -15.06137708	      4.63259969	      2.51090183	      0.75884064	      0.81103696	     -0.11858227	     55.00580563	     -5.49364618	     -0.03153949	     73.87334019	     32.16234839	    -18.08997297	      0.00000000	     54.52268551	      6.77799465	      0.67744278	     73.01286895	     26.73744325	    -14.13224292	      0.00000000	    -23.08404092	      0.73497956	     -3.90621963	     17.16089071	    -10.87032202	     24.54649451	     89.33952635	     96.61593299	     17.83985632	     -7.78927204	      7.85223290	     88.87062282	     97.54675243
      2.70000000	    -16.17872572	      4.75354043	      2.54023155	      0.75725456	      0.81599699	     -0.11974430	     55.82882255	     -5.38443357	      0.40550504	     73.05615483	     30.89679829	    -18.59357931	      0.00000000	     55.39505309	      6.18780822	     -0.20375148	     72.37667428	     25.11967316	    -13.35585899	      0.00000000	    -23.40301470	      0.58260050	     -3.71564793	     20.90509477	     -8.34615319	     29.87001175	     94.54669988	     97.11022804	     19.65921300	     -5.45847017	     13.23034490	     93.04839487	     97.67116771
      2.71666670	    -16.54346579	      4.69244426	      2.89183688	      0.76413228	      0.82847387	     -0.11873611	     55.08384612	     -5.35937177	      0.37500387	     71.58367709	     29.20326687	    -19.23098115	      0.00000000	     54.82988616	      5.72838819	     -0.51368487	     70.97357288	     22.80242636	    -12.83168642	      0.00000000	    -24.02426983	      0.94354228	     -4.46109882	     21.25978533	     -5.78097197	     33.17982026	     99.44159315	     97.52447710	     20.74448797	     -4.60369821	     17.23750706	     95.86967937	     97.48681173
      2.73333330	    -16.67911776	      4.68313272	      3.23190469	      0.78179578	      0.83566978	     -0.11723794	     53.29627650	     -5.31022225	      0.19386001	     69.71620405	     27.78426701	    -20.32433592	      0.00000000	     53.30314833	      5.25371010	     -1.00368861	     69.44273989	     21.43351207	    -11.70385611	      0.00000000	    -23.55920749	      0.89782422	     -4.45816300	     18.63981843	     -4.85765314	     35.49802004	    102.36523390	     97.99707299	     19.35767831	     -5.37763943	     21.60255993	     99.26510267	     97.32538691
      2.75000000	    -16.43280401	      4.65059704	      3.63631073	      0.79514597	      0.85065961	     -0.11598409	     50.37862508	     -5.21269165	     -0.13602521	     66.86345374	     25.85166143	    -21.57334108	      0.00000000	     50.64044152	      5.03670156	     -1.21431874	     66.60596619	     19.97774368	    -10.43645075	      0.00000000	    -22.94393628	      0.77938552	     -4.24551111	     14.31847694	     -5.10788502	     37.28845212	    105.63994947	     98.51595765	     16.13713700	     -6.64572133	     25.19038313	    103.52793643	     97.30368108
